<svg xmlns="http://www.w3.org/2000/svg" viewBox="0 0 512 512">
  <defs>
    <linearGradient id="grad1" x1="0%" y1="0%" x2="100%" y2="100%">
      <stop offset="0%" style="stop-color:#0a66c2;stop-opacity:1" />
      <stop offset="100%" style="stop-color:#004182;stop-opacity:1" />
    </linearGradient>
  </defs>
  <rect width="512" height="512" rx="100" fill="url(#grad1)" />
  <path d="M352 128h-64V96c0-17.6-14.4-32-32-32h-64c-17.6 0-32 14.4-32 32v32h-64c-35.3 0-64 28.7-64 64v192c0 35.3 28.7 64 64 64h256c35.3 0 64-28.7 64-64V192c0-35.3-28.7-64-64-64zm-160-32h64v32h-64V96zm192 288c0 17.6-14.4 32-32 32H128c-17.6 0-32-14.4-32-32V192c0-17.6 14.4-32 32-32h256c17.6 0 32 14.4 32 32v192z" fill="white"/>
  <path d="M256 224c-17.7 0-32 14.3-32 32v64c0 17.7 14.3 32 32 32s32-14.3 32-32v-64c0-17.7-14.3-32-32-32z" fill="white" opacity="0.8"/>
</svg>
